<?xml version="1.0" encoding="UTF-8" standalone="no"?>
<!DOCTYPE svg PUBLIC "-//W3C//DTD SVG 1.1//EN" "http://www.w3.org/Graphics/SVG/1.1/DTD/svg11.dtd">
<svg width="100%" height="100%" viewBox="0 0 10 10" version="1.1" xmlns="http://www.w3.org/2000/svg" xmlns:xlink="http://www.w3.org/1999/xlink" xml:space="preserve" xmlns:serif="http://www.serif.com/" style="fill-rule:evenodd;clip-rule:evenodd;stroke-linejoin:round;stroke-miterlimit:2;">
    <circle cx="5" cy="5" r="5" style="fill:rgb(21,17,20);"/>
    <path d="M3,2L7,2L7,3L8,3L8,5L5,5L5,6L4,6L4,7L6,7L6,6L8,6L8,7L7,7L7,8L3,8L3,7L2,7L2,5L4,5L4,4L2,4L2,3L3,3L3,2ZM6,3L5,3L5,4L6,4L6,3Z" style="fill:rgb(233,229,223);"/>
</svg>
